<svg width="55" height="59" viewBox="0 0 55 59" fill="none" xmlns="http://www.w3.org/2000/svg">
<path fill-rule="evenodd" clip-rule="evenodd" d="M53.0531 11.4116C51.9204 8.63073 38.9158 4.76406 39.2748 7.28996C39.5291 9.13883 41.332 9.94369 51.2191 12.6646C53.5124 13.3266 53.765 13.1595 53.0531 11.4116ZM36.1598 6.72753C35.2498 4.28353 22.9293 3.37324 22.4538 5.70464C22.1352 7.26668 24.6336 7.9948 31.1286 8.17821C36.5877 8.32034 36.7419 8.279 36.1598 6.72753ZM19.2503 35.6976C19.0407 33.1536 15.7495 35.9549 14.1475 39.9992C13.7799 40.9684 13.4222 41.7695 13.3613 41.8299C13.221 41.9227 12.571 37.3705 11.9286 32.067C10.9109 23.6029 8.50864 23.3557 9.66667 31.727C10.5566 38.1981 11.0961 42.3395 11.0581 42.526C11.0343 42.6426 10.7507 42.3659 10.3977 41.9539C5.4555 35.9434 3.90709 34.4865 3.18587 35.1651C2.08549 36.1548 2.94071 38.2719 5.74202 41.5631C9.93232 46.4975 10.9626 47.9944 12.4612 51.4813C13.0347 52.8367 13.6079 51.8123 14.0824 48.5336C14.806 43.5573 15.9029 41.037 18.2777 38.6801C19.0879 37.9226 19.357 37.0792 19.2503 35.6976ZM9.70344 15.9501C9.20414 18.3981 9.6224 18.8477 10.5499 20.3723L11.0461 19.9636C11.3363 19.7315 11.9099 18.5858 12.4236 17.2578C13.5738 14.2383 15.341 12.1219 18.2974 10.2479C18.6623 10.0067 18.9572 9.75114 18.9529 9.65313C19.2215 2.85985 11.1158 9.0259 9.70344 15.9501Z" fill="black"/>
</svg>
