<svg width="24" height="24" viewBox="0 0 24 24" fill="none" xmlns="http://www.w3.org/2000/svg">
<g clip-path="url(#clip0_148_1199)">
<path fill-rule="evenodd" clip-rule="evenodd" d="M4.03401 18.513C5.66801 18.612 7.30401 18.683 8.93901 18.724C9.05301 22.872 9.08501 23.474 9.61501 23.448C10.015 23.429 10.016 23.355 10.027 21.582C10.03 20.957 10.035 20.122 10.059 19.004L10.069 18.749C10.807 18.762 11.545 18.769 12.282 18.771C12.052 20.313 12.066 21.881 12.324 23.42C12.3232 23.471 12.3324 23.5216 12.3511 23.569C12.3698 23.6164 12.3976 23.6596 12.4331 23.6963C12.4685 23.7329 12.5108 23.7622 12.5575 23.7825C12.6043 23.8028 12.6546 23.8136 12.7055 23.8145C12.7565 23.8154 12.8071 23.8062 12.8545 23.7875C12.9019 23.7687 12.9451 23.7409 12.9818 23.7055C13.0184 23.67 13.0477 23.6277 13.068 23.581C13.0883 23.5342 13.0992 23.484 13.1 23.433C13.469 21.903 13.5 20.312 13.195 18.77C13.848 18.767 14.501 18.76 15.154 18.748C15.253 22.859 15.322 23.321 15.812 23.304C16.223 23.291 16.224 23.216 16.243 21.234C16.249 20.638 16.256 19.87 16.277 18.881L16.286 18.723C17.7722 18.6841 19.2578 18.6217 20.742 18.536C20.8456 18.5308 20.9432 18.4861 21.0146 18.411C21.0861 18.3359 21.1259 18.2362 21.1259 18.1325C21.1259 18.0288 21.0861 17.9291 21.0146 17.854C20.9432 17.7789 20.8456 17.7342 20.742 17.729C19.2764 17.6453 17.8095 17.5839 16.342 17.545C16.3966 16.2214 16.4223 14.8967 16.419 13.572L17.187 13.583C18.102 13.6 18.782 13.628 19.29 13.649C20.613 13.704 20.76 13.711 20.801 13.326C20.86 12.778 18.96 12.488 16.408 12.366C16.3875 11.0895 16.3402 9.81353 16.266 8.539L16.806 8.546C18.233 8.563 19.608 8.58 20.261 8.591C20.3627 8.5894 20.4601 8.5495 20.5336 8.47927C20.6072 8.40903 20.6516 8.31364 20.6579 8.21212C20.6642 8.11061 20.632 8.01045 20.5677 7.93165C20.5034 7.85284 20.4117 7.80119 20.311 7.787C18.9417 7.61907 17.5682 7.48702 16.192 7.391C16.0865 5.89098 15.9435 4.39385 15.763 2.901C15.7604 2.7981 15.7169 2.70046 15.6423 2.62957C15.5677 2.55868 15.4679 2.52035 15.365 2.523C15.2621 2.52565 15.1645 2.56907 15.0936 2.64371C15.0227 2.71835 14.9844 2.8181 14.987 2.921C14.987 3.014 15.004 4.915 15.027 7.318C13.3527 7.22537 11.6759 7.18535 9.99901 7.198C9.92782 5.7459 9.83314 4.29504 9.71501 2.846C9.71528 2.74442 9.67518 2.6469 9.60354 2.57488C9.5319 2.50287 9.43459 2.46226 9.33301 2.462C9.23144 2.46173 9.13391 2.50183 9.0619 2.57347C8.98989 2.64511 8.94928 2.74242 8.94901 2.844C8.91301 3.606 8.89601 5.257 8.88901 7.214C7.39325 7.24535 5.89866 7.31871 4.40701 7.434C4.3053 7.43572 4.20844 7.47778 4.13774 7.55092C4.06704 7.62406 4.02829 7.72229 4.03001 7.824C4.03174 7.92571 4.0738 8.02257 4.14693 8.09327C4.22007 8.16397 4.3183 8.20272 4.42001 8.201C6.20701 8.257 6.65701 8.286 7.06601 8.312C7.42101 8.335 7.74601 8.356 8.88601 8.392C8.88601 9.694 8.88801 11.072 8.89201 12.378C6.87101 12.458 5.15201 12.59 4.30201 12.732C4.20509 12.7486 4.11815 12.8016 4.05895 12.8801C3.99975 12.9586 3.97276 13.0568 3.98348 13.1545C3.9942 13.2523 4.04182 13.3423 4.11663 13.4061C4.19144 13.4699 4.28779 13.5028 4.38601 13.498C4.70101 13.481 6.62601 13.488 8.89601 13.503C8.90301 15.18 8.91301 16.646 8.92001 17.539C7.29101 17.58 5.66201 17.649 4.03401 17.744C3.9367 17.751 3.84565 17.7946 3.77919 17.8661C3.71273 17.9375 3.67578 18.0314 3.67578 18.129C3.67578 18.2266 3.71273 18.3205 3.77919 18.3919C3.84565 18.4634 3.9367 18.506 4.03401 18.513ZM10.16 13.513C10.163 14.847 10.146 16.181 10.109 17.515C11.7809 17.487 13.4532 17.488 15.125 17.518L15.086 13.558C13.444 13.5409 11.802 13.5259 10.16 13.513ZM15.074 12.318L15.038 8.524C14.1906 8.51442 13.3433 8.50175 12.496 8.486C11.6817 8.46689 10.8673 8.44656 10.053 8.425C10.105 9.728 10.138 11.031 10.153 12.335C11.7929 12.287 13.4338 12.2813 15.074 12.318Z" fill="black"/>
<path fill-rule="evenodd" clip-rule="evenodd" d="M4.75397 3.23C6.01197 1.997 8.38697 1.905 12.82 2.095C12.81 1.405 12.943 0.729001 13.902 0.333001C15.5142 -0.0194345 17.175 -0.0924954 18.812 0.117001C20.529 0.526001 20.708 1.954 20.648 3.582C21.732 5.276 21.625 9.338 21.359 19.39L21.27 22.8C22.144 22.818 22.865 22.843 23.374 22.875C23.427 22.8763 23.4792 22.8881 23.5276 22.9095C23.5761 22.931 23.6198 22.9619 23.6564 23.0003C23.6929 23.0387 23.7215 23.0839 23.7406 23.1333C23.7596 23.1828 23.7688 23.2355 23.7675 23.2885C23.7662 23.3415 23.7544 23.3937 23.7329 23.4422C23.7114 23.4906 23.6806 23.5344 23.6422 23.5709C23.6038 23.6074 23.5586 23.636 23.5091 23.6551C23.4597 23.6742 23.407 23.6833 23.354 23.682C15.778 24.112 8.18397 24.106 0.609966 23.664C0.508388 23.6627 0.411498 23.6211 0.340609 23.5483C0.26972 23.4755 0.23064 23.3776 0.231966 23.276C0.233292 23.1744 0.274916 23.0775 0.34768 23.0066C0.420444 22.9358 0.518388 22.8967 0.619966 22.898C0.945966 22.893 1.97497 22.878 3.43197 22.859C3.50397 19.083 3.45997 15.974 3.42397 13.418C3.34097 7.608 3.29997 4.656 4.75397 3.23ZM4.20797 22.85C8.63197 22.795 15.998 22.723 20.448 22.787C20.448 22.097 20.446 21.433 20.445 20.792C20.43 7.702 20.425 4.582 19.079 3.812C18.657 3.572 18.104 3.561 17.378 3.547C17.142 3.543 16.888 3.538 16.614 3.525C15.6898 3.47863 14.7658 3.42896 13.842 3.376C9.25497 3.118 6.92197 2.986 5.72697 4.089C4.48997 5.231 4.47497 7.697 4.44497 12.716C4.42897 15.338 4.40897 18.658 4.20797 22.85ZM15.67 2.232C14.969 2.196 14.307 2.162 13.683 2.133C13.77 1.531 13.95 1.32 15.021 1.29C15.536 1.284 15.992 1.271 16.397 1.26C18.419 1.202 19.162 1.181 19.522 2.241C19.578 2.407 19.621 2.568 19.652 2.723C18.937 2.401 17.97 2.343 16.677 2.283L15.67 2.232Z" fill="black"/>
</g>
<defs>
<clipPath id="clip0_148_1199">
<rect width="24" height="24" fill="white"/>
</clipPath>
</defs>
</svg>
