<svg width="24" height="24" viewBox="0 0 24 24" fill="none" xmlns="http://www.w3.org/2000/svg">
<g clip-path="url(#clip0_150_1203)">
<path fill-rule="evenodd" clip-rule="evenodd" d="M5.64023 3.52C6.64023 3.62 7.15023 4.52 7.47023 5.61C7.99013 7.62704 7.99013 9.74296 7.47023 11.76C7.29955 12.0564 7.04576 12.2963 6.74023 12.45C6.23023 12.76 5.62023 12.01 5.49023 11.45C5.1275 10.36 5.06532 9.19236 5.31023 8.07C5.42023 7.74 6.03023 7.42 6.18023 7.74C6.54023 8.53 5.96023 9.82 6.67023 9.82C6.75958 9.8103 6.84234 9.76842 6.90306 9.70218C6.96379 9.63593 6.99833 9.54985 7.00023 9.46C7.00023 9.04 7.08023 8.55 7.05023 8.1C6.91023 6.1 4.85023 6.63 4.40023 7.75C4.02728 9.05725 4.02728 10.4427 4.40023 11.75C4.56717 12.4789 5.00743 13.1161 5.63023 13.53C5.88649 13.6906 6.1828 13.7758 6.48523 13.7758C6.78766 13.7758 7.08397 13.6906 7.34023 13.53C7.85958 13.2729 8.28598 12.8605 8.56023 12.35C9.49023 10.59 9.56023 2.8 5.71023 2.65C4.88268 2.63471 4.0796 2.93096 3.46023 3.48C3.05016 3.75817 2.75795 4.17867 2.64023 4.66C2.50023 5.4 3.17023 5.24 3.29023 4.92C3.49159 4.4742 3.82489 4.10092 4.24514 3.85056C4.66538 3.6002 5.15233 3.48482 5.64023 3.52Z" fill="black"/>
<path fill-rule="evenodd" clip-rule="evenodd" d="M24.0502 13C24.0502 10.33 24.1602 5.65 23.4602 4.06C23.3002 3.71 22.8702 3.69 22.4602 3.65C18.1699 3.43573 13.8689 3.64676 9.62015 4.28C9.57222 4.28919 9.52657 4.30773 9.4858 4.33457C9.44504 4.36141 9.40996 4.39601 9.38256 4.4364C9.35517 4.4768 9.336 4.52219 9.32615 4.56999C9.3163 4.61779 9.31596 4.66707 9.32515 4.715C9.33435 4.76293 9.35289 4.80858 9.37973 4.84935C9.40656 4.89012 9.44116 4.9252 9.48156 4.95259C9.52195 4.97998 9.56734 4.99915 9.61515 5.009C9.66295 5.01885 9.71222 5.01919 9.76015 5.01C10.6802 4.84 11.4902 4.82 16.8602 4.4C18.7867 4.36958 20.7134 4.45306 22.6302 4.65C23.1102 6.28 22.9602 8.88 22.9202 13C22.6802 20.21 22.7702 19.1 21.8102 19.37C20.3102 19.8 17.5602 19.42 11.7502 19.59C7.86015 19.7 6.46015 20.11 4.75015 20.18C3.8296 20.2275 2.90666 20.1671 2.00015 20C1.76015 19.82 1.83015 18.52 1.79015 18.1C1.17015 11.31 1.00015 9 0.910155 7.89C0.903103 7.71513 0.952875 7.54268 1.05202 7.39847C1.15117 7.25426 1.29436 7.14603 1.46015 7.09C2.80707 6.58337 4.18693 6.16908 5.59015 5.85C5.63754 5.85266 5.68493 5.84508 5.72912 5.82776C5.7733 5.81044 5.81323 5.78379 5.84618 5.74964C5.87912 5.71549 5.90432 5.67463 5.92004 5.62986C5.93577 5.58508 5.94165 5.53744 5.93728 5.49019C5.93292 5.44293 5.91842 5.39717 5.89477 5.35603C5.87111 5.31489 5.83886 5.27934 5.80022 5.25179C5.76158 5.22425 5.71745 5.20536 5.67084 5.19643C5.62423 5.18749 5.57625 5.18871 5.53015 5.2C5.00015 5.25 0.680155 5.83 0.140155 6.56C-0.399845 7.29 0.250155 11.23 0.720155 18.2C0.770155 18.89 0.540155 20.29 1.29015 20.89C1.77178 21.1607 2.31789 21.2955 2.87015 21.28C4.39005 21.4235 5.92193 21.3765 7.43015 21.14C12.8602 20.51 20.1902 21.14 22.1402 20.6C23.0002 20.36 23.9202 20.34 24.0002 19C24.0702 18.33 23.9302 20.18 24.0502 13Z" fill="black"/>
<path fill-rule="evenodd" clip-rule="evenodd" d="M20.92 8C21.0181 8 21.1122 7.96102 21.1816 7.89163C21.251 7.82224 21.29 7.72813 21.29 7.63C21.29 7.53187 21.251 7.43776 21.1816 7.36837C21.1122 7.29898 21.0181 7.26 20.92 7.26C17.57 7.18 15.02 6.87 11 7.9C10.9138 7.91591 10.8374 7.96542 10.7877 8.03762C10.7381 8.10982 10.7191 8.1988 10.735 8.285C10.7509 8.3712 10.8004 8.44754 10.8726 8.49724C10.9448 8.54693 11.0338 8.56591 11.12 8.55C13 8.39 13.51 8.79 20.92 8Z" fill="black"/>
<path fill-rule="evenodd" clip-rule="evenodd" d="M10.6102 12.86C13.8399 13.0142 17.0768 12.8062 20.2602 12.24C20.3088 12.2354 20.356 12.2213 20.3991 12.1984C20.4423 12.1756 20.4805 12.1445 20.5116 12.1069C20.5427 12.0693 20.5661 12.0259 20.5804 11.9793C20.5948 11.9326 20.5998 11.8836 20.5952 11.835C20.5906 11.7864 20.5765 11.7392 20.5537 11.6961C20.5308 11.6529 20.4997 11.6147 20.4621 11.5836C20.4245 11.5525 20.3811 11.5291 20.3345 11.5148C20.2878 11.5004 20.2388 11.4954 20.1902 11.5C16.3702 11.61 16.1402 11.25 10.5402 12.21C10.4931 12.2086 10.4462 12.2173 10.4027 12.2355C10.3592 12.2537 10.3201 12.281 10.2881 12.3157C10.256 12.3503 10.2318 12.3913 10.2169 12.4361C10.2021 12.4809 10.197 12.5283 10.2021 12.5752C10.2071 12.6221 10.2222 12.6673 10.2462 12.7079C10.2702 12.7485 10.3027 12.7835 10.3413 12.8105C10.38 12.8375 10.424 12.8558 10.4704 12.8644C10.5168 12.8729 10.5645 12.8714 10.6102 12.86Z" fill="black"/>
<path fill-rule="evenodd" clip-rule="evenodd" d="M6.39003 16.33C6.06003 16.33 5.39003 16.33 5.27003 16.67C5.24467 16.7522 5.25243 16.8411 5.29166 16.9177C5.33089 16.9943 5.39848 17.0525 5.48003 17.08C5.8086 17.1597 6.15147 17.1597 6.48003 17.08C11.317 17.0726 16.148 16.7385 20.94 16.08C21.0382 16.08 21.1323 16.041 21.2017 15.9716C21.271 15.9022 21.31 15.8081 21.31 15.71C21.31 15.6119 21.271 15.5178 21.2017 15.4484C21.1323 15.379 21.0382 15.34 20.94 15.34C11.6 15.57 13.06 15.47 6.39003 16.33Z" fill="black"/>
</g>
<defs>
<clipPath id="clip0_150_1203">
<rect width="24" height="24" fill="white"/>
</clipPath>
</defs>
</svg>
