<svg width="34" height="22" viewBox="0 0 34 22" fill="none" xmlns="http://www.w3.org/2000/svg">
<g clip-path="url(#clip0_29_42)">
<path d="M18.9492 21.7465H31.5056C31.9044 21.7465 32.2962 21.646 32.6416 21.4551C32.987 21.2643 33.2737 20.9897 33.4731 20.659C33.6724 20.3284 33.7772 19.9534 33.7771 19.5717C33.7769 19.1899 33.6717 18.815 33.4721 18.4846L25.0396 4.50472C24.8402 4.17417 24.5535 3.89968 24.2082 3.70883C23.8629 3.51798 23.4712 3.4175 23.0725 3.4175C22.6737 3.4175 22.282 3.51798 21.9367 3.70883C21.5914 3.89968 21.3047 4.17417 21.1054 4.50472L18.9492 8.08165L14.7336 1.08706C14.5341 0.756541 14.2473 0.482085 13.9019 0.291269C13.5565 0.100454 13.1647 0 12.7659 0C12.3671 0 11.9753 0.100454 11.6299 0.291269C11.2845 0.482085 10.9977 0.756541 10.7982 1.08706L0.304988 18.4846C0.105363 18.815 0.00017374 19.1899 2.15039e-07 19.5717C-0.00017331 19.9534 0.104675 20.3284 0.303999 20.659C0.503323 20.9897 0.790093 21.2643 1.13547 21.4551C1.48084 21.646 1.87265 21.7465 2.27147 21.7465H10.1533C13.2762 21.7465 15.5792 20.4335 17.1639 17.872L21.0112 11.4946L23.0718 8.08165L29.2564 18.3334H21.0112L18.9492 21.7465ZM10.0248 18.33L4.52429 18.3288L12.7696 4.66049L16.8836 11.4946L14.1291 16.0624C13.0767 17.7244 11.8812 18.33 10.0248 18.33Z" fill="#00DC82"/>
</g>
<defs>
<clipPath id="clip0_29_42">
<rect width="34" height="22" fill="white"/>
</clipPath>
</defs>
</svg>
