<svg width="24" height="31" viewBox="0 0 24 31" fill="none" xmlns="http://www.w3.org/2000/svg">
<g clip-path="url(#clip0_34_35)">
<path d="M10.3176 15.2057C12.3886 13.2345 11.7566 10.7965 9.88098 7.84221C8.00525 4.88794 4.22947 3.83692 3.52506 4.50734C2.82065 5.17776 2.66463 9.9712 4.54029 12.9255C6.41602 15.8798 8.2465 17.1769 10.3176 15.2057Z" fill="url(#paint0_linear_34_35)"/>
<path d="M12.1084 15.4785C13.6405 17.8918 15.6888 17.0094 18.2243 14.5962C20.7597 12.1829 21.811 7.56029 21.2899 6.73955C20.7688 5.9188 16.8086 5.95988 14.2732 8.37314C11.7378 10.7863 10.5762 13.0653 12.1084 15.4785Z" fill="url(#paint1_linear_34_35)"/>
<path d="M11.2706 14.1509C13.8147 14.463 14.8152 12.115 15.2817 8.31966C15.7482 4.5242 13.8252 0.512743 12.9599 0.406607C12.0946 0.30047 9.18762 3.71948 8.72112 7.51493C8.25464 11.3103 8.7265 13.8389 11.2706 14.1509Z" fill="url(#paint2_linear_34_35)"/>
<path d="M10.6299 30.9351C15.9639 30.9351 20.2898 29.3871 20.2898 22.3673C20.2898 15.3473 15.9639 9.58685 10.6299 9.58685C5.29585 9.58685 0.973511 15.3473 0.973511 22.3673C0.973511 29.3871 5.29585 30.9351 10.6299 30.9351Z" fill="url(#paint3_linear_34_35)"/>
<path d="M15.5087 20.9341C16.2707 20.9341 16.8885 20.6471 16.8885 20.293C16.8885 19.939 16.2707 19.6519 15.5087 19.6519C14.7467 19.6519 14.129 19.939 14.129 20.293C14.129 20.6471 14.7467 20.9341 15.5087 20.9341Z" fill="#EAADCC"/>
<path d="M5.29115 20.5447C6.04747 20.6374 6.6956 20.4278 6.73879 20.0763C6.78198 19.7249 6.20388 19.3648 5.44756 19.2721C4.69124 19.1793 4.04311 19.389 3.99992 19.7404C3.95673 20.0918 4.53483 20.4519 5.29115 20.5447Z" fill="#EAADCC"/>
<path d="M9.02499 19.6944C9.01112 19.6728 8.99309 19.6543 8.97195 19.6398C8.95081 19.6253 8.92699 19.6152 8.90188 19.61C8.87677 19.6048 8.85088 19.6047 8.82573 19.6097C8.80058 19.6146 8.77667 19.6246 8.75541 19.6389C8.73415 19.6532 8.71597 19.6716 8.70192 19.693C8.68788 19.7144 8.67826 19.7384 8.67362 19.7636C8.66899 19.7888 8.66944 19.8147 8.67494 19.8397C8.68045 19.8647 8.69089 19.8884 8.70567 19.9093C9.00108 20.3472 9.45539 20.6014 10.0531 20.6697C10.6483 20.7376 11.1796 20.5852 11.6354 20.2153C11.6557 20.1996 11.6727 20.18 11.6853 20.1576C11.698 20.1353 11.706 20.1107 11.709 20.0852C11.7119 20.0597 11.7098 20.0338 11.7026 20.0092C11.6954 19.9845 11.6833 19.9616 11.6671 19.9417C11.6509 19.9217 11.6309 19.9053 11.6082 19.8932C11.5855 19.8811 11.5607 19.8737 11.5351 19.8714C11.5095 19.8691 11.4837 19.8719 11.4592 19.8797C11.4347 19.8875 11.4121 19.9001 11.3925 19.9168C11.0176 20.2211 10.5898 20.3438 10.0969 20.2875C9.60661 20.2315 9.25449 20.0346 9.02499 19.6944ZM6.17049 16.7297C6.3516 16.7231 6.53222 16.7524 6.70197 16.8158C6.87172 16.8792 7.02726 16.9755 7.15964 17.0992C7.29236 17.2224 7.39938 17.3707 7.47455 17.5355C7.54972 17.7002 7.59155 17.8782 7.59764 18.0591C7.60419 18.24 7.57489 18.4205 7.51142 18.59C7.44795 18.7596 7.35156 18.915 7.2278 19.0472C7.10438 19.1798 6.95595 19.2867 6.79104 19.3618C6.62613 19.4369 6.44799 19.4787 6.26686 19.4848C6.08575 19.4913 5.90512 19.4621 5.73537 19.3986C5.56562 19.3352 5.41008 19.2389 5.2777 19.1153C5.14503 18.992 5.03805 18.8437 4.96291 18.6789C4.88778 18.5142 4.84597 18.3362 4.83989 18.1553C4.83333 17.9744 4.86261 17.794 4.92607 17.6244C4.98952 17.4549 5.08589 17.2995 5.20964 17.1672C5.33305 17.0347 5.48146 16.9278 5.64635 16.8527C5.81125 16.7776 5.98937 16.7358 6.17049 16.7297Z" fill="black"/>
<path d="M6.24278 17.8819C6.24098 17.8228 6.22752 17.7646 6.20316 17.7107C6.17881 17.6569 6.14404 17.6083 6.10085 17.5679C6.05766 17.5275 6.0069 17.496 5.9515 17.4752C5.89609 17.4545 5.83712 17.4449 5.77798 17.4469C5.71884 17.449 5.6607 17.4627 5.60688 17.4873C5.55307 17.5119 5.50464 17.5469 5.4644 17.5902C5.42415 17.6335 5.39287 17.6844 5.37235 17.7398C5.35183 17.7953 5.34248 17.8543 5.34484 17.9133C5.34902 18.0323 5.40033 18.1447 5.48749 18.2259C5.57465 18.3071 5.69052 18.3503 5.8096 18.3461C5.92869 18.342 6.04124 18.2907 6.12249 18.2036C6.20375 18.1166 6.24705 18.0008 6.24287 17.8819H6.24278Z" fill="white"/>
<path d="M14.5303 17.0796C14.7114 17.073 14.8921 17.1022 15.0618 17.1656C15.2316 17.229 15.3872 17.3253 15.5196 17.449C15.6523 17.5723 15.7592 17.7206 15.8344 17.8853C15.9095 18.05 15.9513 18.228 15.9574 18.4089C15.9639 18.5899 15.9347 18.7703 15.8712 18.9399C15.8078 19.1095 15.7114 19.2648 15.5876 19.3971C15.4642 19.5297 15.3158 19.6366 15.1509 19.7116C14.986 19.7867 14.8078 19.8285 14.6267 19.8346C14.4456 19.8411 14.265 19.8118 14.0953 19.7484C13.9255 19.685 13.77 19.5887 13.6376 19.4651C13.5049 19.3418 13.3979 19.1935 13.3227 19.0288C13.2476 18.864 13.2057 18.6861 13.1996 18.5051C13.1931 18.3242 13.2224 18.1438 13.2858 17.9742C13.3493 17.8046 13.4457 17.6493 13.5695 17.517C13.6929 17.3845 13.8413 17.2776 14.0062 17.2025C14.1712 17.1274 14.3492 17.0857 14.5303 17.0796Z" fill="black"/>
<path d="M6.16033 16.4414C7.08133 16.4093 7.85402 17.1291 7.88618 18.049C7.91833 18.9691 7.19786 19.7409 6.27686 19.773C5.35586 19.8052 4.58336 19.0854 4.55121 18.1654C4.51905 17.2454 5.23943 16.4736 6.16033 16.4414ZM7.30896 18.0692C7.28796 17.4676 6.78274 16.997 6.18049 17.0181C5.57843 17.0391 5.10733 17.5437 5.12843 18.1452C5.14943 18.7469 5.65455 19.2174 6.25671 19.1964C6.85886 19.1754 7.32996 18.6708 7.30896 18.0692ZM14.5203 16.7912C15.4413 16.7591 16.2139 17.4789 16.2461 18.3988C16.2782 19.3189 15.5577 20.0907 14.6368 20.1228C13.7158 20.155 12.9432 19.4352 12.9111 18.5152C12.8789 17.5952 13.5994 16.8234 14.5203 16.7912ZM15.6688 18.419C15.6478 17.8174 15.1427 17.3469 14.5405 17.3679C13.9383 17.3889 13.4672 17.8936 13.4883 18.4951C13.5093 19.0967 14.0144 19.5673 14.6166 19.5463C15.2188 19.5252 15.6898 19.0206 15.6688 18.419Z" fill="white"/>
<path d="M14.6028 18.2317C14.601 18.1726 14.5876 18.1144 14.5633 18.0605C14.5389 18.0066 14.5042 17.958 14.461 17.9176C14.4178 17.8771 14.367 17.8456 14.3116 17.8248C14.2562 17.804 14.1972 17.7944 14.138 17.7964C14.0788 17.7985 14.0207 17.8122 13.9668 17.8368C13.913 17.8615 13.8646 17.8964 13.8243 17.9398C13.784 17.9832 13.7528 18.0341 13.7323 18.0895C13.7118 18.145 13.7024 18.204 13.7048 18.2631C13.7096 18.3816 13.7612 18.4934 13.8482 18.5741C13.9353 18.6547 14.0508 18.6976 14.1694 18.6935C14.2881 18.6893 14.4003 18.6385 14.4815 18.5519C14.5627 18.4654 14.6063 18.3503 14.6028 18.2317Z" fill="white"/>
<path d="M3.57033 22.7733L5.66377 24.9494L7.16583 23.3531C7.23029 23.2864 7.31844 23.2478 7.41121 23.2455C7.50398 23.2433 7.59391 23.2776 7.66153 23.3411C7.72914 23.4046 7.769 23.4921 7.77249 23.5848C7.77597 23.6774 7.7428 23.7677 7.68015 23.8361L6.15361 25.4586L8.31924 27.7097C8.35136 27.7431 8.37658 27.7825 8.39347 27.8256C8.41035 27.8687 8.41857 27.9147 8.41764 27.961C8.41672 28.0073 8.40668 28.053 8.38809 28.0954C8.3695 28.1379 8.34273 28.1762 8.3093 28.2083C8.27588 28.2404 8.23645 28.2656 8.19328 28.2825C8.1501 28.2993 8.10403 28.3075 8.05768 28.3066C8.01133 28.3057 7.96562 28.2957 7.92315 28.2771C7.88069 28.2585 7.8423 28.2318 7.81018 28.1984L5.66949 25.973L4.66402 27.0416C4.63227 27.0754 4.59418 27.1025 4.55192 27.1216C4.50966 27.1406 4.46407 27.1511 4.41774 27.1525C4.37141 27.154 4.32525 27.1463 4.2819 27.1299C4.23855 27.1135 4.19885 27.0887 4.16508 27.057C4.13131 27.0253 4.10413 26.9872 4.08508 26.945C4.06603 26.9028 4.05549 26.8572 4.05406 26.811C4.05263 26.7647 4.06035 26.7186 4.07676 26.6753C4.09317 26.6319 4.11796 26.5923 4.14971 26.5586L5.17965 25.4639L3.06136 23.262C3.02924 23.2286 3.00402 23.1892 2.98714 23.1461C2.97025 23.1029 2.96204 23.0569 2.96296 23.0106C2.96388 22.9643 2.97393 22.9186 2.99252 22.8762C3.0111 22.8338 3.03788 22.7954 3.0713 22.7634C3.10473 22.7313 3.14415 22.7061 3.18733 22.6892C3.2305 22.6723 3.27657 22.6641 3.32292 22.665C3.36927 22.666 3.41498 22.676 3.45745 22.6946C3.49992 22.7131 3.53821 22.7399 3.57033 22.7733ZM17.6288 22.7733C17.6937 22.7059 17.7827 22.6669 17.8763 22.6651C17.9226 22.6642 17.9687 22.6724 18.0119 22.6892C18.055 22.7061 18.0945 22.7313 18.1279 22.7634C18.1613 22.7955 18.1881 22.8338 18.2066 22.8763C18.2252 22.9187 18.2353 22.9643 18.2362 23.0106C18.2371 23.0569 18.2289 23.103 18.212 23.1461C18.1951 23.1892 18.1699 23.2286 18.1378 23.262L16.0194 25.4639L17.0495 26.5586C17.1117 26.6247 17.146 26.7122 17.1453 26.8029C17.1445 26.8936 17.1088 26.9806 17.0456 27.0457L17.0341 27.057C17.0003 27.0887 16.9606 27.1135 16.9172 27.1298C16.8739 27.1462 16.8277 27.1539 16.7814 27.1525C16.735 27.1511 16.6895 27.1405 16.6472 27.1215C16.6049 27.1024 16.5669 27.0753 16.5351 27.0415L15.5296 25.9729L13.389 28.1984C13.326 28.2638 13.2403 28.3025 13.1495 28.3063C13.0588 28.3102 12.97 28.279 12.9017 28.2192L12.8898 28.2083C12.8564 28.1762 12.8296 28.1379 12.8111 28.0954C12.7925 28.053 12.7824 28.0073 12.7815 27.961C12.7806 27.9147 12.7888 27.8687 12.8057 27.8256C12.8226 27.7824 12.8479 27.7431 12.88 27.7097L15.0456 25.4586L13.519 23.8361C13.4568 23.77 13.4225 23.6825 13.4233 23.5918C13.424 23.5011 13.4597 23.4142 13.5229 23.3491L13.5345 23.3377C13.6027 23.2737 13.6935 23.2394 13.7871 23.2422C13.8806 23.2451 13.9692 23.285 14.0333 23.3531L15.5353 24.9494L17.6288 22.7733Z" fill="#ECB732"/>
<path d="M12.8064 11.8699C12.8726 11.936 12.9098 12.0257 12.9098 12.1192C12.9098 12.2127 12.8726 12.3023 12.8064 12.3684L11.163 14.0103L12.1646 15.0111C12.2289 15.0753 12.2659 15.1617 12.268 15.2524C12.2701 15.3431 12.2371 15.4311 12.1759 15.4981L12.1646 15.5098C12.0984 15.5759 12.0087 15.6131 11.9151 15.6131C11.8215 15.6131 11.7317 15.5759 11.6655 15.5098L10.6637 14.509L9.66188 15.5098C9.62913 15.5427 9.59021 15.5688 9.54735 15.5866C9.50449 15.6044 9.45854 15.6136 9.41212 15.6137C9.3657 15.6137 9.31972 15.6046 9.27683 15.5869C9.23393 15.5692 9.19496 15.5432 9.16213 15.5104C9.12931 15.4776 9.10329 15.4386 9.08555 15.3958C9.06782 15.3529 9.05872 15.307 9.05878 15.2606C9.05883 15.2142 9.06805 15.1683 9.08589 15.1255C9.10373 15.0827 9.12985 15.0438 9.16276 15.0111L10.1645 14.0103L8.52104 12.3685C8.4568 12.3044 8.41979 12.218 8.4177 12.1273C8.4156 12.0366 8.44858 11.9486 8.50979 11.8815L8.52104 11.8698C8.58723 11.8037 8.677 11.7666 8.7706 11.7666C8.8642 11.7666 8.95397 11.8037 9.02016 11.8698L10.6637 13.5116L12.3072 11.8698C12.34 11.8371 12.3789 11.8111 12.4217 11.7934C12.4646 11.7756 12.5105 11.7665 12.5568 11.7665C12.6032 11.7665 12.6491 11.7756 12.6919 11.7934C12.7348 11.8111 12.7737 11.8372 12.8064 11.8699Z" fill="#FFC73B"/>
</g>
<defs>
<linearGradient id="paint0_linear_34_35" x1="325.294" y1="-246.636" x2="431.496" y2="269.264" gradientUnits="userSpaceOnUse">
<stop stop-color="#52CE63"/>
<stop offset="1" stop-color="#51A256"/>
</linearGradient>
<linearGradient id="paint1_linear_34_35" x1="273.74" y1="329.532" x2="-242.657" y2="435.909" gradientUnits="userSpaceOnUse">
<stop stop-color="#52CE63"/>
<stop offset="1" stop-color="#51A256"/>
</linearGradient>
<linearGradient id="paint2_linear_34_35" x1="337.673" y1="40.2363" x2="238.522" y2="848.578" gradientUnits="userSpaceOnUse">
<stop stop-color="#8AE99C"/>
<stop offset="1" stop-color="#52CE63"/>
</linearGradient>
<linearGradient id="paint3_linear_34_35" x1="993.404" y1="382.604" x2="833.369" y2="2141.79" gradientUnits="userSpaceOnUse">
<stop stop-color="#FFE56C"/>
<stop offset="1" stop-color="#FFC63A"/>
</linearGradient>
<clipPath id="clip0_34_35">
<rect width="24" height="31" fill="white"/>
</clipPath>
</defs>
</svg>
