<svg width="41" height="24" viewBox="0 0 41 24" fill="none" xmlns="http://www.w3.org/2000/svg">
<path d="M20.1084 0C14.7473 0 11.3939 2.66694 10.053 8.00081C12.0655 5.33387 14.4115 4.33225 17.0933 4.99838C18.6215 5.38006 19.7142 6.48379 20.9261 7.70665C22.8973 9.6953 25.1799 12 30.1638 12C35.525 12 38.8759 9.33306 40.2168 3.99919C38.2067 6.66613 35.8608 7.66532 33.179 6.99919C31.6507 6.61994 30.5556 5.51378 29.3462 4.29335C27.375 2.30227 25.0923 0 20.1084 0ZM10.053 12C4.69188 12 1.34089 14.6669 0 20.0008C2.01011 17.3339 4.35605 16.3347 7.03782 17.0008C8.56853 17.3801 9.66119 18.4862 10.8707 19.7066C12.8418 21.6977 15.1245 24 20.1084 24C25.472 24 28.823 21.3331 30.1638 15.9992C28.1513 18.6661 25.8054 19.6677 23.126 19.0016C21.5953 18.6199 20.5027 17.5162 19.2907 16.2934C17.3196 14.3047 15.0369 12 10.053 12Z" fill="#06B6D4"/>
</svg>
