<svg width="22" height="24" viewBox="0 0 22 24" fill="none" xmlns="http://www.w3.org/2000/svg">
<g clip-path="url(#clip0_34_39)">
<path d="M17.4426 0V12.8358C17.4426 16.4232 14.5583 19.3311 11.0001 19.3311C7.44182 19.3311 4.5575 16.4232 4.5575 12.8358V0H9.11528V12.8358C9.11528 13.3397 9.31385 13.8231 9.66732 14.1794C10.0208 14.5358 10.5002 14.736 11.0001 14.736C11.4999 14.736 11.9793 14.5358 12.3328 14.1794C12.6863 13.8231 12.8848 13.3397 12.8848 12.8358V0H17.4426Z" fill="#35495E"/>
<path d="M22 0V12.8358C22 18.9609 17.0753 23.9277 11 23.9277C4.92473 23.9277 0 18.9609 0 12.8357V0H4.55744V12.8358C4.55744 16.4232 7.44202 19.3311 11 19.3311C14.558 19.3311 17.4426 16.4232 17.4426 12.8358V0H22Z" fill="#41B883"/>
</g>
<defs>
<clipPath id="clip0_34_39">
<rect width="22" height="24" fill="white"/>
</clipPath>
</defs>
</svg>
