<svg width="24" height="24" viewBox="0 0 24 24" fill="none" xmlns="http://www.w3.org/2000/svg">
<g clip-path="url(#clip0_68_141)">
<path d="M8.20013 24C10.4082 24 12.2002 22.208 12.2002 20V15.9999H8.20013C5.99212 15.9999 4.20007 17.792 4.20007 20C4.20007 22.208 5.99212 24 8.20013 24Z" fill="#0ACF83"/>
<path d="M4.20007 12C4.20007 9.79197 5.99212 7.99994 8.20013 7.99994H12.2002V15.9999H8.20013C5.99212 16 4.20007 14.208 4.20007 12Z" fill="#A259FF"/>
<path d="M4.20007 4.00003C4.20007 1.79203 5.99212 0 8.20013 0H12.2002V7.99996H8.20013C5.99212 7.99996 4.20007 6.20803 4.20007 4.00003Z" fill="#F24E1E"/>
<path d="M12.2 0H16.2C18.408 0 20.2001 1.79203 20.2001 4.00003C20.2001 6.20803 18.408 7.99996 16.2 7.99996H12.2V0Z" fill="#FF7262"/>
<path d="M20.2001 12C20.2001 14.208 18.408 16 16.2 16C13.992 16 12.2 14.208 12.2 12C12.2 9.79197 13.992 7.99994 16.2 7.99994C18.408 7.99994 20.2001 9.79197 20.2001 12Z" fill="#1ABCFE"/>
</g>
<defs>
<clipPath id="clip0_68_141">
<rect width="24" height="24" fill="white"/>
</clipPath>
</defs>
</svg>
