<svg width="24" height="24" viewBox="0 0 24 24" fill="none" xmlns="http://www.w3.org/2000/svg">
<path d="M12.0072 0C6.99593 0 5.53033 0.00516967 5.24545 0.0288024C4.21705 0.114287 3.57712 0.276208 2.87996 0.623314C2.34268 0.890106 1.91895 1.19936 1.50076 1.63288C0.73916 2.42347 0.277582 3.3961 0.110491 4.55226C0.0292538 5.11354 0.00562099 5.22801 0.000820582 8.09496C-0.00102573 9.05061 0.000820582 10.3083 0.000820582 11.9953C0.000820582 17.0025 0.00635951 18.4666 0.0303615 18.7509C0.113445 19.7516 0.270382 20.3812 0.602718 21.0699C1.23785 22.3882 2.45087 23.3778 3.87992 23.7471C4.37473 23.8745 4.92124 23.9446 5.62283 23.9778C5.92009 23.9908 8.94988 24 11.9815 24C15.0132 24 18.0448 23.9963 18.3347 23.9815C19.1471 23.9433 19.6188 23.88 20.1404 23.7452C20.8489 23.5635 21.5093 23.2293 22.0754 22.7659C22.6414 22.3026 23.0995 21.7212 23.4176 21.0625C23.7434 20.3905 23.9087 19.7369 23.9835 18.7884C23.9997 18.5816 24.0065 15.2847 24.0065 11.9922C24.0065 8.69907 23.9992 5.40821 23.9829 5.20143C23.9072 4.23765 23.742 3.5896 23.4056 2.90462C23.1295 2.34389 22.8231 1.92515 22.3781 1.49699C21.5842 0.738524 20.613 0.276947 19.4556 0.11004C18.8948 0.0289871 18.7831 0.00498504 15.914 0H12.0072Z" fill="url(#paint0_radial_76_797)"/>
<path d="M12.0072 0C6.99593 0 5.53033 0.00516967 5.24545 0.0288024C4.21705 0.114287 3.57712 0.276208 2.87996 0.623314C2.34268 0.890106 1.91895 1.19936 1.50076 1.63288C0.73916 2.42347 0.277582 3.3961 0.110491 4.55226C0.0292538 5.11354 0.00562099 5.22801 0.000820582 8.09496C-0.00102573 9.05061 0.000820582 10.3083 0.000820582 11.9953C0.000820582 17.0025 0.00635951 18.4666 0.0303615 18.7509C0.113445 19.7516 0.270382 20.3812 0.602718 21.0699C1.23785 22.3882 2.45087 23.3778 3.87992 23.7471C4.37473 23.8745 4.92124 23.9446 5.62283 23.9778C5.92009 23.9908 8.94988 24 11.9815 24C15.0132 24 18.0448 23.9963 18.3347 23.9815C19.1471 23.9433 19.6188 23.88 20.1404 23.7452C20.8489 23.5635 21.5093 23.2293 22.0754 22.7659C22.6414 22.3026 23.0995 21.7212 23.4176 21.0625C23.7434 20.3905 23.9087 19.7369 23.9835 18.7884C23.9997 18.5816 24.0065 15.2847 24.0065 11.9922C24.0065 8.69907 23.9992 5.40821 23.9829 5.20143C23.9072 4.23765 23.742 3.5896 23.4056 2.90462C23.1295 2.34389 22.8231 1.92515 22.3781 1.49699C21.5842 0.738524 20.613 0.276947 19.4556 0.11004C18.8948 0.0289871 18.7831 0.00498504 15.914 0H12.0072Z" fill="url(#paint1_radial_76_797)"/>
<path d="M12.0016 3.13873C9.59479 3.13873 9.29273 3.14926 8.34742 3.19228C7.40395 3.23548 6.75996 3.38485 6.19647 3.604C5.61359 3.83036 5.11915 4.13316 4.62655 4.62594C4.13359 5.11853 3.83079 5.61297 3.60369 6.19567C3.38398 6.75935 3.23443 7.40352 3.19197 8.34662C3.14987 9.29193 3.13879 9.59417 3.13879 12.001C3.13879 14.4079 3.1495 14.709 3.19234 15.6543C3.23573 16.5978 3.38509 17.2418 3.60406 17.8053C3.83061 18.3881 4.1334 18.8826 4.62618 19.3752C5.11859 19.8681 5.61303 20.1717 6.19554 20.398C6.75941 20.6172 7.40358 20.7666 8.34686 20.8098C9.29218 20.8528 9.59405 20.8633 12.0007 20.8633C14.4077 20.8633 14.7089 20.8528 15.6542 20.8098C16.5977 20.7666 17.2424 20.6172 17.8063 20.398C18.3889 20.1717 18.8826 19.8681 19.3751 19.3752C19.868 18.8826 20.1708 18.3881 20.3979 17.8054C20.6158 17.2418 20.7653 16.5976 20.8096 15.6545C20.8521 14.7092 20.8632 14.4079 20.8632 12.001C20.8632 9.59417 20.8521 9.29211 20.8096 8.3468C20.7653 7.40334 20.6158 6.75935 20.3979 6.19585C20.1708 5.61297 19.868 5.11853 19.3751 4.62594C18.8821 4.13297 18.3891 3.83018 17.8057 3.604C17.2407 3.38485 16.5964 3.23548 15.6529 3.19228C14.7076 3.14926 14.4066 3.13873 11.9991 3.13873H12.0016ZM11.2066 4.73579C11.4426 4.73542 11.7059 4.73579 12.0016 4.73579C14.3679 4.73579 14.6483 4.74428 15.5827 4.78675C16.4468 4.82626 16.9158 4.97064 17.2282 5.09194C17.6417 5.25257 17.9366 5.44459 18.2466 5.75477C18.5568 6.06495 18.7488 6.36036 18.9098 6.77393C19.0311 7.08596 19.1757 7.55492 19.215 8.41899C19.2574 9.35323 19.2667 9.63387 19.2667 11.999C19.2667 14.3641 19.2574 14.6448 19.215 15.579C19.1755 16.4431 19.0311 16.912 18.9098 17.224C18.7492 17.6376 18.5568 17.9321 18.2466 18.2421C17.9364 18.5523 17.6419 18.7443 17.2282 18.9049C16.9161 19.0268 16.4468 19.1708 15.5827 19.2103C14.6485 19.2528 14.3679 19.262 12.0016 19.262C9.63522 19.262 9.35476 19.2528 8.42053 19.2103C7.55646 19.1704 7.0875 19.026 6.77492 18.9047C6.36134 18.7441 6.06593 18.5521 5.75575 18.2419C5.44557 17.9317 5.25356 17.6371 5.09256 17.2233C4.97126 16.9113 4.82669 16.4423 4.78736 15.5782C4.7449 14.644 4.73641 14.3634 4.73641 11.9968C4.73641 9.63017 4.7449 9.35101 4.78736 8.41678C4.82688 7.55271 4.97126 7.08374 5.09256 6.77135C5.25319 6.35777 5.44557 6.06236 5.75575 5.75218C6.06593 5.442 6.36134 5.24999 6.77492 5.08899C7.08731 4.96713 7.55646 4.82312 8.42053 4.78343C9.23808 4.7465 9.5549 4.73542 11.2066 4.73358V4.73579ZM16.7323 6.2073C16.5219 6.2073 16.3163 6.26968 16.1414 6.38655C15.9665 6.50343 15.8302 6.66954 15.7497 6.86389C15.6692 7.05823 15.6482 7.27208 15.6892 7.47838C15.7303 7.68469 15.8316 7.87418 15.9804 8.02289C16.1292 8.17161 16.3187 8.27287 16.525 8.31386C16.7313 8.35485 16.9452 8.33374 17.1395 8.25319C17.3338 8.17264 17.4999 8.03628 17.6167 7.86134C17.7335 7.6864 17.7958 7.48076 17.7957 7.2704C17.7957 6.68328 17.3194 6.20693 16.7323 6.20693V6.2073ZM12.0016 7.44987C9.48825 7.44987 7.45048 9.48764 7.45048 12.001C7.45048 14.5144 9.48825 16.5513 12.0016 16.5513C14.515 16.5513 16.5522 14.5144 16.5522 12.001C16.5522 9.48764 14.5148 7.44987 12.0015 7.44987H12.0016ZM12.0016 9.04692C13.633 9.04692 14.9557 10.3694 14.9557 12.001C14.9557 13.6324 13.633 14.9551 12.0016 14.9551C10.3701 14.9551 9.04754 13.6324 9.04754 12.001C9.04754 10.3694 10.3701 9.04692 12.0016 9.04692Z" fill="white"/>
<defs>
<radialGradient id="paint0_radial_76_797" cx="0" cy="0" r="1" gradientUnits="userSpaceOnUse" gradientTransform="translate(6.37677 25.8485) rotate(-90) scale(23.7858 22.1287)">
<stop stop-color="#FFDD55"/>
<stop offset="0.1" stop-color="#FFDD55"/>
<stop offset="0.5" stop-color="#FF543E"/>
<stop offset="1" stop-color="#C837AB"/>
</radialGradient>
<radialGradient id="paint1_radial_76_797" cx="0" cy="0" r="1" gradientUnits="userSpaceOnUse" gradientTransform="translate(-4.02122 1.72892) rotate(78.6776) scale(10.6324 43.8384)">
<stop stop-color="#3771C8"/>
<stop offset="0.128" stop-color="#3771C8"/>
<stop offset="1" stop-color="#6600FF" stop-opacity="0"/>
</radialGradient>
</defs>
</svg>
